<svg width="171" height="17" viewBox="0 0 171 17" fill="none" xmlns="http://www.w3.org/2000/svg">
<g clip-path="url(#clip0_443_2349)">
<path d="M16.2933 4.88626V1.94011C16.2933 1.94011 8.92582 -2.42513 2.89341 1.94011C1.97455 2.77915 1.2414 3.80758 0.742606 4.95716C0.243807 6.10675 -0.00923813 7.35121 0.000257689 8.60798C0.000257689 12.9498 3.35018 15.2757 3.35018 15.2757C3.35018 15.2757 8.7731 19.1521 16.5388 15.2757V7.83251H8.14688V10.6238H13.4933V13.4146C13.4933 13.4146 3.50267 17 3.65479 8.50446C3.65479 8.50446 3.19812 3.80081 8.14683 3.18049C8.14683 3.18049 11.4206 2.25014 16.2933 4.88626Z" fill="#231F20"/>
<path d="M29.2368 0.0102539H26.1914V16.9985H29.2368V0.0102539Z" fill="#231F20"/>
<path d="M37.0039 0.0102539H40.506L45.5309 12.3291L50.7082 0.0102539H54.3628L46.9014 16.6109H44.1606L37.0039 0.0102539Z" fill="#231F20"/>
<path d="M61.668 0.0102539V16.9984H75.22V13.8798H65.0179V9.8481H72.1748V7.21206H65.0179V3.18036H75.22V0.0102539H61.668Z" fill="#231F20"/>
<path d="M84.0547 16.6109H87.2528V5.66164L97.1503 16.6109H99.8908V0.0102539H96.8459V11.3993L86.7021 0.0102539H84.0547V16.6109Z" fill="#231F20"/>
<path d="M123.188 5.35157C123.188 5.35157 122.122 3.18068 116.792 3.02564C116.792 3.02564 110.245 2.97351 110.549 8.5044C110.854 14.0353 116.863 13.7252 116.863 13.7252C116.863 13.7252 122.426 13.5699 123.188 11.7093V15.2156C123.188 15.2156 121.958 16.611 116.863 16.9985C116.863 16.9985 107.199 17.2915 107.199 9.22811C107.199 9.22811 106.59 -0.213874 116.183 0.0102764C116.183 0.0102764 121.513 -0.0757831 123.188 1.47492V5.35157Z" fill="#231F20"/>
<path d="M131.867 0.0102539H135.217V7.05754H143.896V0.0102539H147.094V16.6109H144.049V10.0036H135.065V16.6109H131.867V0.0102539Z" fill="#231F20"/>
<path d="M160.036 9.8486V16.6109H163.385V9.8486L170.999 0.0102539H167.04L161.71 6.90252L156.686 0.0102539H152.574L160.036 9.8486Z" fill="#231F20"/>
</g>
<defs>
<clipPath id="clip0_443_2349">
<rect width="171" height="17" fill="white"/>
</clipPath>
</defs>
</svg>
