<svg width="97" height="62" viewBox="0 0 97 62" fill="none" xmlns="http://www.w3.org/2000/svg">
<g clip-path="url(#clip0_443_2329)">
<path fill-rule="evenodd" clip-rule="evenodd" d="M13.9899 57.9021C13.978 57.9253 13.9549 57.9715 13.9435 58.0065C12.6908 60.369 10.2312 61.9785 7.42401 61.9785C3.35233 61.9785 0.0117188 58.5735 0.0117188 54.3696C0.0117188 50.1889 3.35233 46.7607 7.42401 46.7607C10.2431 46.7607 12.714 48.4052 13.9549 50.8027C13.9899 50.8489 14.0012 50.8721 14.0362 50.9415C14.0481 50.9533 11.6698 52.6671 11.6467 52.6327C11.6348 52.5864 11.6235 52.5514 11.6003 52.5283C10.9155 50.8258 9.29208 49.6908 7.42401 49.7258C4.92991 49.7489 2.87657 51.8102 2.87657 54.3696C2.87657 56.9522 4.92991 59.0372 7.42401 59.0372C9.23387 59.0372 10.8115 57.9253 11.5302 56.3502C11.5653 56.2922 11.5771 56.2459 11.6003 56.1996L13.9899 57.9021Z" fill="#161413"/>
<path fill-rule="evenodd" clip-rule="evenodd" d="M17.0625 46.8999H19.916V52.2156H27.4102V46.8999H30.2869V61.6889H27.4102V55.1919H19.916V61.6889H17.0625V46.8999Z" fill="#161413"/>
<path fill-rule="evenodd" clip-rule="evenodd" d="M70.5664 61.6889V46.8999H80.9252V49.8875H73.4547V52.8406H80.357V55.7939H73.4547V58.747H81.9807V61.6889H70.5664Z" fill="#161413"/>
<path fill-rule="evenodd" clip-rule="evenodd" d="M86.0273 61.6889V46.8999H88.9273V58.747H96.9782V61.6889H86.0273Z" fill="#161413"/>
<path fill-rule="evenodd" clip-rule="evenodd" d="M54.9976 61.6889H54.9049H52.0977V46.8999H52.3062H56.1226L62.4681 55.7939V46.8999H65.3448V61.6889H63.048L54.9976 50.5362V61.6889Z" fill="#161413"/>
<path fill-rule="evenodd" clip-rule="evenodd" d="M41.1819 49.8875L38.6533 55.7939H43.8269L41.1819 49.8875ZM37.3537 58.747L36.0314 61.6889H32.5977L39.1635 46.8999H43.1771L49.7892 61.6889H46.3555L45.0219 58.747H37.3537Z" fill="#161413"/>
<path fill-rule="evenodd" clip-rule="evenodd" d="M49.983 41.2043C46.8716 43.0004 43.1495 44.0679 39.1838 44.0679C31.0696 44.0679 23.9627 39.6516 20.1188 33.1031C20.1188 33.0727 20.0891 33.0727 20.0891 33.0423C20.0891 33.0119 20.0579 33.0119 20.0579 32.9814L23.1693 31.3678L26.2807 29.7832C26.3119 29.8151 26.3431 29.8441 26.3728 29.9064C29.0265 34.1996 33.7856 37.0632 39.1838 37.0632C40.9238 37.0632 42.6012 36.759 44.096 36.2709C40.7707 32.4643 38.7574 27.47 38.7574 22.018C38.7574 16.5979 40.741 11.6036 44.0351 7.76519C42.5403 7.24809 40.8926 6.97433 39.1838 6.97433C33.8465 6.97433 28.9047 9.83649 26.19 14.4354C26.1588 14.4658 26.1588 14.4976 26.1588 14.5266L19.9062 11.2994C19.936 11.2386 19.9672 11.1778 19.9969 11.1459C23.8111 4.47719 31.0087 0 39.1838 0C43.1495 0 46.8716 1.06607 49.983 2.89402C53.0943 1.06607 56.8165 0 60.7807 0C68.956 0 76.1551 4.47719 79.9679 11.1459C79.9983 11.1778 80.0288 11.2386 80.0593 11.2994L73.8061 14.5266C73.8061 14.4976 73.8061 14.4658 73.7757 14.4354C71.0611 9.83649 66.1196 6.97433 60.7807 6.97433C59.0734 6.97433 57.4257 7.24809 55.9309 7.76519C59.225 11.6036 61.2086 16.5979 61.2086 22.018C61.2086 27.47 59.1953 32.4643 55.8699 36.2709C57.3647 36.759 59.0422 37.0632 60.7807 37.0632C66.1805 37.0632 70.9393 34.1996 73.5929 29.9064C73.6233 29.8441 73.6538 29.8151 73.6843 29.7832L76.7949 31.3678L79.9069 32.9814C79.9069 33.0119 79.8765 33.0119 79.8765 33.0423C79.8765 33.0727 79.846 33.0727 79.846 33.1031C76.0027 39.6516 68.895 44.0679 60.7807 44.0679C56.8165 44.0679 53.0943 43.0004 49.983 41.2043ZM49.983 32.4643C47.4199 29.7543 45.7735 26.0694 45.7735 22.018C45.7735 18.029 47.3292 14.4049 49.983 11.6949C52.6367 14.4049 54.1925 18.029 54.1925 22.018C54.1925 26.0694 52.5446 29.7543 49.983 32.4643Z" fill="#161413"/>
</g>
<defs>
<clipPath id="clip0_443_2329">
<rect width="97" height="62" fill="white"/>
</clipPath>
</defs>
</svg>
