<svg width="128" height="27" viewBox="0 0 128 27" fill="none" xmlns="http://www.w3.org/2000/svg">
<g clip-path="url(#clip0_443_2360)">
<path fill-rule="evenodd" clip-rule="evenodd" d="M116.04 22.7975V15.242H124.213V11.3821H116.04V5.39299H126.174V1.53183H111.856V26.656H127.218V22.7975H116.04ZM104.538 27.6217L104.57 1.49926H100.386L100.451 18.0372L82.0826 0.800781L82.0498 26.6547H86.2338L86.1674 10.7501L104.538 27.6217ZM74.7246 26.6547L74.7271 1.49926H70.5443L70.5405 26.6547H74.7246ZM50.7695 26.656H65.3146V22.7975H54.9536V1.49926H50.7695V26.656ZM29.1312 26.656H44.4941V22.7975H33.3153V15.242H41.4863V11.3821H33.3153V5.39299H43.4484V1.53183H29.1312V26.656ZM4.67954 13.9454C4.67954 9.15252 7.94847 4.79355 13.5046 4.79355C16.0543 4.79355 18.5706 5.72529 20.3035 7.45584L22.5255 4.49384C21.7089 3.49565 18.5706 0.933698 13.5046 0.933698C5.65997 0.933698 0.234375 6.98932 0.234375 14.0444C0.234375 21.2664 5.95435 27.2555 13.9615 27.2555C17.4915 27.2555 20.4341 26.0918 22.6894 23.8948L20.7605 21.1321C19.7801 22.1317 17.2638 23.4296 14.1587 23.4296C8.56922 23.4296 4.67954 19.2035 4.67954 13.9454Z" fill="black"/>
</g>
<defs>
<clipPath id="clip0_443_2360">
<rect width="128" height="27" fill="white"/>
</clipPath>
</defs>
</svg>
