<svg width="40" height="28" viewBox="0 0 85 60" fill="none" xmlns="http://www.w3.org/2000/svg">
<path d="M55.5598 1C42.262 1 31.0337 10.1607 27.7583 22.5446H33.5278C36.5392 13.2197 45.2524 6.52197 55.5598 6.52197C68.4544 6.52197 78.8535 17.0048 78.8535 30.0031C78.8535 43.0015 68.4544 53.4779 55.5598 53.4779C45.5033 53.4779 36.9688 47.1037 33.699 38.1327H40.1152V32.566H32.4056H28.8424H26.9023C28.1938 47.3547 40.5609 58.9999 55.5598 58.9999C71.4149 58.9999 84.3314 45.9858 84.3314 30.0031C84.3314 14.0205 71.4149 1 55.5598 1Z" fill="black" stroke="black"/>
<path d="M29.7052 1C43.003 1 54.2313 10.1607 57.5067 22.5446H51.7372C48.7258 13.2197 40.0126 6.52197 29.7052 6.52197C16.8106 6.52197 6.41148 17.0048 6.41148 30.0031C6.41148 43.0015 16.8106 53.4779 29.7052 53.4779C39.7617 53.4779 48.2962 47.1037 51.566 38.1327H45.1498V32.566H52.8594H56.4226H58.3627C57.0712 47.3547 44.7041 58.9999 29.7052 58.9999C13.8501 58.9999 0.933594 45.9858 0.933594 30.0031C0.933594 14.0205 13.8501 1 29.7052 1Z" fill="black" stroke="black"/>
</svg>
