<svg width="167" height="26" viewBox="0 0 167 26" fill="none"
    xmlns="http://www.w3.org/2000/svg">
    <path d="M3.02949 25.9978H0.685024C0.489407 25.9978 0 25.9978 0 25.7038C0 25.509 0.0981745 25.4097 0.391233 25.3112C2.54301 24.6239 3.02876 23.4478 3.02876 21.7828V4.21939C3.02876 2.64925 2.53935 1.47238 0.391233 0.690981C0.0981745 0.690981 0 0.494713 0 0.396947C0 0.00514562 0.489407 0.102912 0.685024 0.102912H20.0423C24.4418 0.102912 28.0603 3.63133 28.0603 8.04846C28.0603 12.4656 24.4418 15.9896 20.0423 15.9896H10.2651V21.9739C10.3633 23.5433 10.8512 24.6202 12.9026 25.309C13.1957 25.4075 13.2931 25.506 13.2931 25.7016C13.2931 25.9956 12.8044 25.9956 12.6088 25.9956H3.02949V25.9978ZM147.346 16.4821H151.941L147.346 8.63359L146.856 7.84852L142.753 16.4821H147.346ZM147.346 0.00220526H150.475L163.576 23.1574C163.968 23.7455 164.455 24.3336 165.041 24.6276C165.53 25.0209 166.116 25.1201 166.604 25.3149C166.801 25.4141 166.996 25.5126 166.996 25.7082C166.996 26.0022 166.507 26.0022 166.311 26.0022H154.676C154.481 26.0022 153.893 26.0022 153.893 25.7082C153.893 25.5126 154.089 25.4141 154.286 25.3149C154.873 25.1201 155.262 24.8253 155.459 24.2373C155.655 23.5492 155.459 23.1589 154.97 22.2738C154.306 20.8581 153.622 19.4521 152.919 18.0559H141.968L141.871 18.2515C141.772 18.6447 140.992 20.0157 140.406 21.4895C139.625 23.0589 139.331 23.4507 139.527 24.2358C139.625 24.8239 140.113 25.1179 140.699 25.3142C140.896 25.4134 140.992 25.5119 140.992 25.7067C140.992 26.0007 140.502 26.0007 140.307 26.0007H134.928C134.734 26.0007 134.243 26.0007 134.243 25.7067C134.243 25.5119 134.342 25.4127 134.635 25.3142C135.125 25.1186 135.709 25.0201 136.199 24.6269C136.785 24.3328 137.275 23.7448 137.664 23.1567L138.349 21.6865L145.78 6.08357L144.703 4.21939C143.728 2.64925 142.749 1.66865 141.673 1.07984C141.184 0.785807 140.695 0.785807 140.208 0.589539C139.915 0.491038 139.816 0.392536 139.915 0.196268C139.915 0 140.11 0.0985016 140.208 0H147.347L147.346 0.00220526ZM118.113 25.8986H118.505C136.496 25.8986 136.301 0.0970314 118.505 0.0970314H103.741C103.448 0.0970314 102.96 -0.00147017 102.96 0.391066C102.96 0.488832 103.155 0.6851 103.35 0.6851C105.501 1.37167 105.987 2.54928 106.087 4.02166V21.9791C105.99 23.5478 105.501 24.6254 103.35 25.3134C103.155 25.4127 102.96 25.5112 102.96 25.7067C102.96 26.0007 103.449 26.0007 103.741 26.0007H113.225V25.9015H118.113V25.8986ZM118.113 1.96268C119.435 1.9679 120.7 2.49661 121.634 3.43366C122.569 4.37071 123.096 5.64021 123.102 6.96568V18.9343C123.096 20.2599 122.569 21.5295 121.635 22.4666C120.7 23.4037 119.435 23.9323 118.113 23.9373H113.222V1.96268H118.113ZM80.8592 16.4821H85.4543L80.8592 8.63359L80.3698 7.84852L76.267 16.4821H80.8592ZM80.8592 0.00220526H84.0828L97.1847 23.1574C97.4778 23.7455 97.9672 24.3336 98.554 24.6276C99.042 25.0209 99.6303 25.1201 100.216 25.3149C100.411 25.4141 100.606 25.5126 100.606 25.7082C100.606 26.0022 100.02 26.0022 99.8252 26.0022H88.1944C87.9981 26.0022 87.5094 26.0022 87.5094 25.7082C87.5094 25.5126 87.6061 25.4141 87.8992 25.3149C88.3893 25.1201 88.8765 24.8253 88.9754 24.2373C89.1703 23.5492 88.9754 23.1589 88.5842 22.2738C87.8992 20.8037 87.1189 19.4291 86.4346 18.0559H75.4808L75.3834 18.2515C75.2859 18.6447 74.6009 20.0157 73.9181 21.4895C73.2338 23.0589 72.8433 23.4507 73.0389 24.2358C73.2345 24.8239 73.625 25.1179 74.2112 25.3142C74.406 25.4134 74.6017 25.5119 74.6017 25.7067C74.6017 26.0007 74.113 26.0007 73.8207 26.0007H68.539C68.3434 26.0007 67.7565 26.0007 67.7565 25.7067C67.7565 25.5119 67.9522 25.4127 68.1478 25.3142C68.7339 25.1186 69.2233 25.0201 69.8109 24.6269C70.2988 24.3328 70.8864 23.7448 71.1787 23.1567L71.863 21.6865L79.3924 6.08357L78.3184 4.21939C77.341 2.64925 76.267 1.66865 75.2874 1.07984C74.7013 0.785807 74.3093 0.785807 73.7225 0.589539C73.5261 0.491038 73.3305 0.392536 73.4294 0.196268C73.5283 0 73.7225 0.0985016 73.8214 0H80.8606L80.8592 0.00220526ZM48.5927 17.1694C50.842 17.953 53.5798 18.1485 55.7302 17.4634L64.2376 24.8217L64.9219 25.4097C64.9593 25.4482 64.9876 25.4946 65.0047 25.5455C65.0218 25.5963 65.0274 25.6504 65.0208 25.7038C65.0208 25.9978 64.5314 25.9978 64.3351 25.9978H55.3404L48.5942 20.406L43.1177 15.9903V22.0739C43.2166 23.5441 43.8027 24.6239 45.8556 25.3083C46.0512 25.4075 46.1486 25.5053 46.1486 25.7008C46.1486 25.9949 45.6592 25.9949 45.4629 25.9949H33.6328C33.3398 25.9949 32.8504 25.9949 32.8504 25.7008C32.8504 25.5053 33.0467 25.4068 33.2409 25.3083C35.5853 24.5247 35.8784 23.3471 35.9788 21.4858V4.51343C35.8806 2.74922 35.5875 1.47238 33.2409 0.690981C33.0453 0.690981 32.8504 0.494713 32.8504 0.396947C32.8504 0.00514562 33.3398 0.102912 33.6328 0.102912H52.6992C53.7349 0.0984622 54.7613 0.298745 55.7199 0.692324C56.6784 1.0859 57.5503 1.66507 58.2857 2.39675C59.0212 3.12843 59.6058 3.99829 60.0061 4.95667C60.4065 5.91504 60.6148 6.94316 60.6191 7.9823V8.04846C60.6265 10.146 59.8036 12.1607 58.3311 13.6498C56.8587 15.1389 54.8572 15.9805 52.7666 15.9896H46.5391C46.8322 16.5777 47.5165 16.7747 48.1026 17.0694C48.2989 17.0694 48.3956 17.1694 48.592 17.1694H48.5927ZM48.5927 14.1284H49.3789C51.9204 14.1284 54.0722 11.3806 54.0722 7.84852C54.0678 4.41493 51.9167 1.66865 49.3789 1.66865H43.1169V14.1284H48.5927ZM15.8376 1.66938H10.2651V14.1291H16.719C19.3565 14.1291 21.4079 11.3813 21.4079 7.84925C21.4079 4.4164 19.3565 1.66938 16.719 1.66938H15.8376Z" fill="black"/>
</svg>
