<svg width="48" height="48" viewBox="0 0 48 48" fill="none" xmlns="http://www.w3.org/2000/svg">
<g clip-path="url(#clip0_443_2183)">
<path d="M34.5 15H42.4838C42.7827 14.9999 43.0748 15.089 43.3227 15.2561C43.5706 15.4231 43.7629 15.6604 43.875 15.9375L46.5 22.5" stroke="black" stroke-width="2" stroke-linecap="round" stroke-linejoin="round"/>
<path d="M4.5 27H34.5" stroke="black" stroke-width="2" stroke-linecap="round" stroke-linejoin="round"/>
<path d="M36 40.5C38.4853 40.5 40.5 38.4853 40.5 36C40.5 33.5147 38.4853 31.5 36 31.5C33.5147 31.5 31.5 33.5147 31.5 36C31.5 38.4853 33.5147 40.5 36 40.5Z" stroke="black" stroke-width="2" stroke-linecap="round" stroke-linejoin="round"/>
<path d="M15 40.5C17.4853 40.5 19.5 38.4853 19.5 36C19.5 33.5147 17.4853 31.5 15 31.5C12.5147 31.5 10.5 33.5147 10.5 36C10.5 38.4853 12.5147 40.5 15 40.5Z" stroke="black" stroke-width="2" stroke-linecap="round" stroke-linejoin="round"/>
<path d="M31.5 36H19.5" stroke="black" stroke-width="2" stroke-linecap="round" stroke-linejoin="round"/>
<path d="M34.5 22.5H46.5V34.5C46.5 34.8978 46.342 35.2794 46.0607 35.5607C45.7794 35.842 45.3978 36 45 36H40.5" stroke="black" stroke-width="2" stroke-linecap="round" stroke-linejoin="round"/>
<path d="M10.5 36H6C5.60218 36 5.22064 35.842 4.93934 35.5607C4.65804 35.2794 4.5 34.8978 4.5 34.5V13.5C4.5 13.1022 4.65804 12.7206 4.93934 12.4393C5.22064 12.158 5.60218 12 6 12H34.5V31.7569" stroke="black" stroke-width="2" stroke-linecap="round" stroke-linejoin="round"/>
</g>
<defs>
<clipPath id="clip0_443_2183">
<rect width="48" height="48" fill="white"/>
</clipPath>
</defs>
</svg>
